<?xml version="1.0" encoding="utf-8" standalone="no"?><!DOCTYPE svg PUBLIC "-//W3C//DTD SVG 20010904//EN" "http://www.w3.org/TR/2001/REC-SVG-20010904/DTD/svg10.dtd"><svg xmlns="http://www.w3.org/2000/svg" width="2095" height="924" xmlns:xlink="http://www.w3.org/1999/xlink"><source><![CDATA[Title: Path WEB
HTML --> CSS:
Note left of HTML: I Start here
HTML -> Markdown:
CSS -> SASS:
Note over Markdown: For curiosity
Note over SASS: For simplify \n work
HTML --> JS:
CSS --> JS:
JS -> Bootstrap:
CSS -> Bootstrap:
Note left of Rust: Other Idea
Rust -> WebAssembly:
Rust --> MySQL:
Note left of Swift: For apple APP
Note left of NodeJS: Back to APP
HTML --> NodeJS:
CSS --> NodeJS:
JS --> NodeJS:
NodeJS -> ReactJS:
NodeJS -> Express:
NodeJS -> MongoDB:
MySQL --> MongoDB:
ReactJS -> React Native:
ReactJS -> JestJS:
Note over JestJS: For testing
]]></source><desc>Path WEB</desc><defs><marker viewBox="0 0 5 5" markerWidth="5" markerHeight="5" orient="auto" refX="5" refY="2.5" id="markerArrowBlock"><path d="M 0 0 L 5 2.5 L 0 5 z"></path></marker><marker viewBox="0 0 9.6 16" markerWidth="4" markerHeight="16" orient="auto" refX="9.6" refY="8" id="markerArrowOpen"><path d="M 9.6,8 1.92,16 0,13.7 5.76,8 0,2.286 1.92,0 9.6,8 z"></path></marker></defs><g class="title"><path d="M10,10C79.1,14.2 35.3,5.8 115.5,10.0C116.8,37.4 114.2,15.2 115.5,42.6C31.7,46.8 98.6,38.4 10.0,42.6C11.3,37.4 8.7,34.8 10.0,10.0" stroke="#000000" fill="#ffffff" style="stroke-width: 2px;"></path><text x="15" y="28.921875" style="font-size: 16px; font-family: danielbd;"><tspan x="15">Path WEB</tspan></text></g><g class="actor"><path d="M117.0234375,52.578125C135.2,49.5 156.9,55.6 192.8,52.6C191.1,76.3 194.5,73.8 192.8,95.2C147.3,98.2 180.7,92.1 117.0,95.2C115.3,82.7 118.7,63.3 117.0,52.6" stroke="#000000" fill="#ffffff" style="stroke-width: 2px;"></path><text x="127.0234375" y="76.5" style="font-size: 16px; font-family: danielbd;"><tspan x="127.0234375">HTML</tspan></text></g><g class="actor"><path d="M117.0234375,862.40625C174.6,865.4 180.7,859.4 192.8,862.4C194.5,872.6 191.1,869.2 192.8,905.0C162.2,902.0 174.6,908.0 117.0,905.0C118.7,872.6 115.3,869.2 117.0,862.4" stroke="#000000" fill="#ffffff" style="stroke-width: 2px;"></path><text x="127.0234375" y="886.328125" style="font-size: 16px; font-family: danielbd;"><tspan x="127.0234375">HTML</tspan></text></g><path d="M154.9,95.2C185.6,678.3 124.2,739.6 154.9,862.4" stroke="#000000" fill="none" style="stroke-width: 2px;"></path><g class="actor"><path d="M212.8203125,52.578125C230.3,54.9 235.1,50.3 270.8,52.6C269.1,81.0 272.5,61.3 270.8,95.2C228.8,97.5 250.6,92.8 212.8,95.2C214.5,63.5 211.1,71.8 212.8,52.6" stroke="#000000" fill="#ffffff" style="stroke-width: 2px;"></path><text x="222.8203125" y="76.5" style="font-size: 16px; font-family: danielbd;"><tspan x="222.8203125">CSS</tspan></text></g><g class="actor"><path d="M212.8203125,862.40625C241.7,864.7 227.3,860.1 270.8,862.4C269.1,898.2 272.5,869.2 270.8,905.0C261.5,902.7 256.9,907.3 212.8,905.0C211.1,869.2 214.5,872.6 212.8,862.4" stroke="#000000" fill="#ffffff" style="stroke-width: 2px;"></path><text x="222.8203125" y="886.328125" style="font-size: 16px; font-family: danielbd;"><tspan x="222.8203125">CSS</tspan></text></g><path d="M241.8,95.2C272.5,521.4 211.1,666.3 241.8,862.4" stroke="#000000" fill="none" style="stroke-width: 2px;"></path><g class="actor"><path d="M290.8046875,52.578125C326.2,48.2 350.9,57.0 401.1,52.6C402.9,59.4 399.4,80.3 401.1,95.2C308.5,90.7 354.9,99.6 290.8,95.2C289.1,59.4 292.5,88.3 290.8,52.6" stroke="#000000" fill="#ffffff" style="stroke-width: 2px;"></path><text x="300.8046875" y="76.5" style="font-size: 16px; font-family: danielbd;"><tspan x="300.8046875">Markdown</tspan></text></g><g class="actor"><path d="M290.8046875,862.40625C345.6,858.0 328.7,866.8 401.1,862.4C399.4,880.6 402.9,885.3 401.1,905.0C317.3,900.6 308.5,909.4 290.8,905.0C289.1,873.9 292.5,894.8 290.8,862.4" stroke="#000000" fill="#ffffff" style="stroke-width: 2px;"></path><text x="300.8046875" y="886.328125" style="font-size: 16px; font-family: danielbd;"><tspan x="300.8046875">Markdown</tspan></text></g><path d="M346.0,95.2C315.3,427.7 376.7,739.6 346.0,862.4" stroke="#000000" fill="none" style="stroke-width: 2px;"></path><g class="actor"><path d="M421.1484375,52.578125C470.4,55.2 475.6,50.0 486.0,52.6C484.3,81.5 487.7,79.8 486.0,95.2C475.6,92.6 443.3,97.7 421.1,95.2C419.4,59.4 422.9,71.1 421.1,52.6" stroke="#000000" fill="#ffffff" style="stroke-width: 2px;"></path><text x="431.1484375" y="76.5" style="font-size: 16px; font-family: danielbd;"><tspan x="431.1484375">SASS</tspan></text></g><g class="actor"><path d="M421.1484375,862.40625C458.4,865.0 439.9,859.8 486.0,862.4C484.3,876.7 487.7,877.8 486.0,905.0C460.9,907.6 436.7,902.4 421.1,905.0C422.9,872.6 419.4,894.8 421.1,862.4" stroke="#000000" fill="#ffffff" style="stroke-width: 2px;"></path><text x="431.1484375" y="886.328125" style="font-size: 16px; font-family: danielbd;"><tspan x="431.1484375">SASS</tspan></text></g><path d="M453.6,95.2C422.9,217.9 484.3,696.9 453.6,862.4" stroke="#000000" fill="none" style="stroke-width: 2px;"></path><g class="actor"><path d="M505.9765625,52.578125C518.2,54.3 542.3,50.8 549.2,52.6C550.9,88.3 547.5,59.4 549.2,95.2C542.3,96.9 513.5,93.4 506.0,95.2C504.3,88.3 507.7,63.2 506.0,52.6" stroke="#000000" fill="#ffffff" style="stroke-width: 2px;"></path><text x="515.9765625" y="76.5" style="font-size: 16px; font-family: danielbd;"><tspan x="515.9765625">JS</tspan></text></g><g class="actor"><path d="M505.9765625,862.40625C542.3,860.7 538.8,864.1 549.2,862.4C547.5,880.4 550.9,892.2 549.2,905.0C516.4,906.7 538.8,903.3 506.0,905.0C504.3,869.2 507.7,898.2 506.0,862.4" stroke="#000000" fill="#ffffff" style="stroke-width: 2px;"></path><text x="515.9765625" y="886.328125" style="font-size: 16px; font-family: danielbd;"><tspan x="515.9765625">JS</tspan></text></g><path d="M527.6,95.2C496.9,442.0 558.3,218.7 527.6,862.4" stroke="#000000" fill="none" style="stroke-width: 2px;"></path><g class="actor"><path d="M569.2109375,52.578125C596.2,48.1 631.4,57.1 681.6,52.6C683.3,59.4 679.9,76.6 681.6,95.2C648.4,99.7 624.1,90.7 569.2,95.2C567.5,68.7 570.9,84.9 569.2,52.6" stroke="#000000" fill="#ffffff" style="stroke-width: 2px;"></path><text x="579.2109375" y="76.5" style="font-size: 16px; font-family: danielbd;"><tspan x="579.2109375">Bootstrap</tspan></text></g><g class="actor"><path d="M569.2109375,862.40625C641.4,866.9 600.6,857.9 681.6,862.4C679.9,877.4 683.3,869.2 681.6,905.0C654.6,900.5 637.1,909.5 569.2,905.0C567.5,894.8 570.9,898.2 569.2,862.4" stroke="#000000" fill="#ffffff" style="stroke-width: 2px;"></path><text x="579.2109375" y="886.328125" style="font-size: 16px; font-family: danielbd;"><tspan x="579.2109375">Bootstrap</tspan></text></g><path d="M625.4,95.2C594.7,739.6 656.1,217.9 625.4,862.4" stroke="#000000" fill="none" style="stroke-width: 2px;"></path><g class="actor"><path d="M741.0703125,52.578125C764.6,55.0 752.8,50.1 802.5,52.6C804.2,59.4 800.8,62.8 802.5,95.2C787.8,97.6 755.8,92.7 741.1,95.2C742.8,88.3 739.4,81.2 741.1,52.6" stroke="#000000" fill="#ffffff" style="stroke-width: 2px;"></path><text x="751.0703125" y="76.5" style="font-size: 16px; font-family: danielbd;"><tspan x="751.0703125">Rust</tspan></text></g><g class="actor"><path d="M741.0703125,862.40625C767.6,864.9 763.4,859.9 802.5,862.4C800.8,893.0 804.2,879.5 802.5,905.0C755.8,902.5 787.2,907.4 741.1,905.0C742.8,896.2 739.4,894.2 741.1,862.4" stroke="#000000" fill="#ffffff" style="stroke-width: 2px;"></path><text x="751.0703125" y="886.328125" style="font-size: 16px; font-family: danielbd;"><tspan x="751.0703125">Rust</tspan></text></g><path d="M771.8,95.2C802.5,383.7 741.1,553.0 771.8,862.4" stroke="#000000" fill="none" style="stroke-width: 2px;"></path><g class="actor"><path d="M822.5390625,52.578125C851.6,47.3 933.4,57.9 954.5,52.6C956.2,87.6 952.8,68.6 954.5,95.2C843.6,89.9 862.3,100.4 822.5,95.2C824.2,62.8 820.8,75.5 822.5,52.6" stroke="#000000" fill="#ffffff" style="stroke-width: 2px;"></path><text x="832.5390625" y="76.5" style="font-size: 16px; font-family: danielbd;"><tspan x="832.5390625">WebAssembly</tspan></text></g><g class="actor"><path d="M822.5390625,862.40625C891.4,857.1 917.7,867.7 954.5,862.4C952.8,883.3 956.2,890.0 954.5,905.0C843.6,899.7 854.6,910.3 822.5,905.0C820.8,886.6 824.2,894.1 822.5,862.4" stroke="#000000" fill="#ffffff" style="stroke-width: 2px;"></path><text x="832.5390625" y="886.328125" style="font-size: 16px; font-family: danielbd;"><tspan x="832.5390625">WebAssembly</tspan></text></g><path d="M888.5,95.2C919.2,678.3 857.8,739.6 888.5,862.4" stroke="#000000" fill="none" style="stroke-width: 2px;"></path><g class="actor"><path d="M974.4765625,52.578125C1046.2,49.1 1030.4,56.1 1062.2,52.6C1060.5,59.4 1063.9,64.3 1062.2,95.2C1005.8,98.7 1048.1,91.6 974.5,95.2C976.2,67.7 972.8,73.8 974.5,52.6" stroke="#000000" fill="#ffffff" style="stroke-width: 2px;"></path><text x="984.4765625" y="76.5" style="font-size: 16px; font-family: danielbd;"><tspan x="984.4765625">MySQL</tspan></text></g><g class="actor"><path d="M974.4765625,862.40625C1016.2,858.9 1003.5,865.9 1062.2,862.4C1063.9,882.7 1060.5,872.6 1062.2,905.0C1020.0,908.5 1016.6,901.5 974.5,905.0C976.2,872.6 972.8,885.9 974.5,862.4" stroke="#000000" fill="#ffffff" style="stroke-width: 2px;"></path><text x="984.4765625" y="886.328125" style="font-size: 16px; font-family: danielbd;"><tspan x="984.4765625">MySQL</tspan></text></g><path d="M1018.3,95.2C987.6,356.8 1049.0,322.7 1018.3,862.4" stroke="#000000" fill="none" style="stroke-width: 2px;"></path><g class="actor"><path d="M1161.296875,52.578125C1191.6,55.3 1175.1,49.9 1229.3,52.6C1227.6,73.7 1231.0,61.8 1229.3,95.2C1210.4,92.4 1218.5,97.9 1161.3,95.2C1159.6,88.3 1163.0,83.2 1161.3,52.6" stroke="#000000" fill="#ffffff" style="stroke-width: 2px;"></path><text x="1171.296875" y="76.5" style="font-size: 16px; font-family: danielbd;"><tspan x="1171.296875">Swift</tspan></text></g><g class="actor"><path d="M1161.296875,862.40625C1172.2,865.1 1207.2,859.7 1229.3,862.4C1231.0,873.3 1227.6,880.1 1229.3,905.0C1201.5,902.3 1172.2,907.7 1161.3,905.0C1159.6,880.2 1163.0,895.3 1161.3,862.4" stroke="#000000" fill="#ffffff" style="stroke-width: 2px;"></path><text x="1171.296875" y="886.328125" style="font-size: 16px; font-family: danielbd;"><tspan x="1171.296875">Swift</tspan></text></g><path d="M1195.3,95.2C1164.6,313.0 1226.0,318.8 1195.3,862.4" stroke="#000000" fill="none" style="stroke-width: 2px;"></path><g class="actor"><path d="M1317,52.578125C1383.1,56.1 1359.9,49.1 1404.0,52.6C1405.7,74.6 1402.3,62.8 1404.0,95.2C1367.7,91.7 1345.4,98.6 1317.0,95.2C1318.7,84.9 1315.3,79.4 1317.0,52.6" stroke="#000000" fill="#ffffff" style="stroke-width: 2px;"></path><text x="1327" y="76.5" style="font-size: 16px; font-family: danielbd;"><tspan x="1327">NodeJS</tspan></text></g><g class="actor"><path d="M1317,862.40625C1371.3,858.9 1379.3,865.9 1404.0,862.4C1402.3,869.6 1405.7,877.8 1404.0,905.0C1346.7,901.5 1339.5,908.5 1317.0,905.0C1318.7,873.1 1315.3,884.7 1317.0,862.4" stroke="#000000" fill="#ffffff" style="stroke-width: 2px;"></path><text x="1327" y="886.328125" style="font-size: 16px; font-family: danielbd;"><tspan x="1327">NodeJS</tspan></text></g><path d="M1360.5,95.2C1329.8,678.3 1391.2,364.0 1360.5,862.4" stroke="#000000" fill="none" style="stroke-width: 2px;"></path><g class="actor"><path d="M1423.984375,52.578125C1468.7,56.2 1461.0,48.9 1515.1,52.6C1513.4,84.9 1516.8,62.8 1515.1,95.2C1448.7,91.5 1461.6,98.8 1424.0,95.2C1425.7,79.1 1422.3,65.4 1424.0,52.6" stroke="#000000" fill="#ffffff" style="stroke-width: 2px;"></path><text x="1433.984375" y="76.5" style="font-size: 16px; font-family: danielbd;"><tspan x="1433.984375">ReactJS</tspan></text></g><g class="actor"><path d="M1423.984375,862.40625C1469.9,866.1 1473.1,858.8 1515.1,862.4C1513.4,894.8 1516.8,889.2 1515.1,905.0C1487.9,908.6 1474.1,901.3 1424.0,905.0C1422.3,892.0 1425.7,894.5 1424.0,862.4" stroke="#000000" fill="#ffffff" style="stroke-width: 2px;"></path><text x="1433.984375" y="886.328125" style="font-size: 16px; font-family: danielbd;"><tspan x="1433.984375">ReactJS</tspan></text></g><path d="M1469.5,95.2C1438.9,678.3 1500.2,699.7 1469.5,862.4" stroke="#000000" fill="none" style="stroke-width: 2px;"></path><g class="actor"><path d="M1535.109375,52.578125C1557.3,48.9 1605.5,56.3 1627.8,52.6C1629.5,59.9 1626.0,62.8 1627.8,95.2C1605.5,91.5 1612.9,98.9 1535.1,95.2C1533.4,59.4 1536.8,88.3 1535.1,52.6" stroke="#000000" fill="#ffffff" style="stroke-width: 2px;"></path><text x="1545.109375" y="76.5" style="font-size: 16px; font-family: danielbd;"><tspan x="1545.109375">Express</tspan></text></g><g class="actor"><path d="M1535.109375,862.40625C1560.1,866.1 1600.3,858.7 1627.8,862.4C1626.0,894.8 1629.5,880.1 1627.8,905.0C1605.5,901.3 1604.2,908.7 1535.1,905.0C1536.8,886.3 1533.4,894.8 1535.1,862.4" stroke="#000000" fill="#ffffff" style="stroke-width: 2px;"></path><text x="1545.109375" y="886.328125" style="font-size: 16px; font-family: danielbd;"><tspan x="1545.109375">Express</tspan></text></g><path d="M1581.4,95.2C1550.7,491.0 1612.1,307.8 1581.4,862.4" stroke="#000000" fill="none" style="stroke-width: 2px;"></path><g class="actor"><path d="M1647.75,52.578125C1664.7,48.3 1682.2,56.8 1753.5,52.6C1755.3,79.4 1751.8,73.1 1753.5,95.2C1683.0,90.9 1716.4,99.4 1647.8,95.2C1649.5,85.0 1646.0,76.5 1647.8,52.6" stroke="#000000" fill="#ffffff" style="stroke-width: 2px;"></path><text x="1657.75" y="76.5" style="font-size: 16px; font-family: danielbd;"><tspan x="1657.75">MongoDB</tspan></text></g><g class="actor"><path d="M1647.75,862.40625C1736.6,858.2 1719.0,866.6 1753.5,862.4C1751.8,894.8 1755.3,872.6 1753.5,905.0C1710.8,909.2 1673.1,900.8 1647.8,905.0C1649.5,872.6 1646.0,875.2 1647.8,862.4" stroke="#000000" fill="#ffffff" style="stroke-width: 2px;"></path><text x="1657.75" y="886.328125" style="font-size: 16px; font-family: danielbd;"><tspan x="1657.75">MongoDB</tspan></text></g><path d="M1700.6,95.2C1670.0,279.3 1731.3,524.7 1700.6,862.4" stroke="#000000" fill="none" style="stroke-width: 2px;"></path><g class="actor"><path d="M1773.546875,52.578125C1794.2,57.7 1825.5,47.4 1902.4,52.6C1904.1,71.3 1900.7,62.8 1902.4,95.2C1858.1,100.3 1805.5,90.0 1773.5,95.2C1771.8,67.3 1775.3,77.2 1773.5,52.6" stroke="#000000" fill="#ffffff" style="stroke-width: 2px;"></path><text x="1783.546875" y="76.5" style="font-size: 16px; font-family: danielbd;"><tspan x="1783.546875">React Native</tspan></text></g><g class="actor"><path d="M1773.546875,862.40625C1804.8,867.6 1879.3,857.3 1902.4,862.4C1900.7,887.2 1904.1,872.6 1902.4,905.0C1881.8,910.1 1864.6,899.8 1773.5,905.0C1771.8,898.2 1775.3,869.2 1773.5,862.4" stroke="#000000" fill="#ffffff" style="stroke-width: 2px;"></path><text x="1783.546875" y="886.328125" style="font-size: 16px; font-family: danielbd;"><tspan x="1783.546875">React Native</tspan></text></g><path d="M1838.0,95.2C1868.7,678.3 1807.3,739.6 1838.0,862.4" stroke="#000000" fill="none" style="stroke-width: 2px;"></path><g class="actor"><path d="M1922.390625,52.578125C1935.4,55.8 1990.7,49.3 2003.7,52.6C2002.0,77.7 2005.4,88.3 2003.7,95.2C1935.4,98.4 1990.7,91.9 1922.4,95.2C1920.7,83.3 1924.1,83.4 1922.4,52.6" stroke="#000000" fill="#ffffff" style="stroke-width: 2px;"></path><text x="1932.390625" y="76.5" style="font-size: 16px; font-family: danielbd;"><tspan x="1932.390625">JestJS</tspan></text></g><g class="actor"><path d="M1922.390625,862.40625C1941.9,865.7 1946.1,859.2 2003.7,862.4C2002.0,872.6 2005.4,869.2 2003.7,905.0C1969.2,908.2 1980.9,901.7 1922.4,905.0C1924.1,872.6 1920.7,869.2 1922.4,862.4" stroke="#000000" fill="#ffffff" style="stroke-width: 2px;"></path><text x="1932.390625" y="886.328125" style="font-size: 16px; font-family: danielbd;"><tspan x="1932.390625">JestJS</tspan></text></g><path d="M1963.1,95.2C1993.8,505.1 1932.4,404.1 1963.1,862.4" stroke="#000000" fill="none" style="stroke-width: 2px;"></path><g class="signal"><text x="198.3671875" y="120.15625" style="font-size: 16px; font-family: danielbd;"><tspan x="198.3671875"></tspan></text><path d="M154.9,115.2C188.7,118.6 210.7,111.7 241.8,115.2" stroke="#000000" fill="none" style="stroke-width: 2px; stroke-dasharray: 6px, 2px; marker-end: url(&quot;#markerArrowBlock&quot;);"></path></g><g class="note"><path d="M20,135.15625C38.4,139.8 104.8,130.6 134.9,135.2C136.2,154.8 133.6,153.2 134.9,167.7C54.0,172.3 58.7,163.1 20.0,167.7C18.7,162.5 21.3,158.4 20.0,135.2" stroke="#000000" fill="#ffffff" style="stroke-width: 2px;"></path><text x="25" y="154.078125" style="font-size: 16px; font-family: danielbd;"><tspan x="25">I Start here</tspan></text></g><g class="signal"><text x="250.44921875" y="192.734375" style="font-size: 16px; font-family: danielbd;"><tspan x="250.44921875"></tspan></text><path d="M154.9,187.7C232.1,180.1 308.3,195.4 346.0,187.7" stroke="#000000" fill="none" style="stroke-width: 2px; marker-end: url(&quot;#markerArrowBlock&quot;);"></path></g><g class="signal"><text x="347.6875" y="212.734375" style="font-size: 16px; font-family: danielbd;"><tspan x="347.6875"></tspan></text><path d="M241.8,207.7C316.6,216.2 324.9,199.3 453.6,207.7" stroke="#000000" fill="none" style="stroke-width: 2px; marker-end: url(&quot;#markerArrowBlock&quot;);"></path></g><g class="note"><path d="M284.609375,227.734375C377.9,232.6 314.6,222.8 407.3,227.7C406.0,255.1 408.6,243.3 407.3,260.3C352.3,255.4 336.5,265.2 284.6,260.3C285.9,249.4 283.3,252.5 284.6,227.7" stroke="#000000" fill="#ffffff" style="stroke-width: 2px;"></path><text x="289.609375" y="246.65625" style="font-size: 16px; font-family: danielbd;"><tspan x="289.609375">For curiosity</tspan></text></g><g class="note"><path d="M394.9609375,280.3125C413.7,275.6 438.9,285.0 512.2,280.3C510.1,319.7 514.2,292.7 512.2,332.1C454.6,327.4 454.7,336.8 395.0,332.1C397.0,323.8 392.9,319.7 395.0,280.3" stroke="#000000" fill="#ffffff" style="stroke-width: 2px;"></path><text x="399.9609375" y="299.234375" style="font-size: 16px; font-family: danielbd;"><tspan x="399.9609375">For simplify</tspan><tspan dy="1.2em" x="399.9609375">work</tspan></text></g><g class="signal"><text x="341.2578125" y="357.09375" style="font-size: 16px; font-family: danielbd;"><tspan x="341.2578125"></tspan></text><path d="M154.9,352.1C393.9,337.2 280.0,367.0 527.6,352.1" stroke="#000000" fill="none" style="stroke-width: 2px; stroke-dasharray: 6px, 2px; marker-end: url(&quot;#markerArrowBlock&quot;);"></path></g><g class="signal"><text x="384.703125" y="377.09375" style="font-size: 16px; font-family: danielbd;"><tspan x="384.703125"></tspan></text><path d="M241.8,372.1C481.9,383.5 287.5,360.7 527.6,372.1" stroke="#000000" fill="none" style="stroke-width: 2px; stroke-dasharray: 6px, 2px; marker-end: url(&quot;#markerArrowBlock&quot;);"></path></g><g class="signal"><text x="576.49609375" y="397.09375" style="font-size: 16px; font-family: danielbd;"><tspan x="576.49609375"></tspan></text><path d="M527.6,392.1C583.9,388.2 601.9,396.0 625.4,392.1" stroke="#000000" fill="none" style="stroke-width: 2px; marker-end: url(&quot;#markerArrowBlock&quot;);"></path></g><g class="signal"><text x="433.60546875" y="417.09375" style="font-size: 16px; font-family: danielbd;"><tspan x="433.60546875"></tspan></text><path d="M241.8,412.1C388.7,396.8 348.0,427.4 625.4,412.1" stroke="#000000" fill="none" style="stroke-width: 2px; marker-end: url(&quot;#markerArrowBlock&quot;);"></path></g><g class="note"><path d="M645.3984375,432.09375C714.8,427.8 734.8,436.4 751.8,432.1C753.1,439.9 750.5,437.3 751.8,464.7C679.9,460.4 670.9,468.9 645.4,464.7C646.7,456.7 644.1,442.4 645.4,432.1" stroke="#000000" fill="#ffffff" style="stroke-width: 2px;"></path><text x="650.3984375" y="451.015625" style="font-size: 16px; font-family: danielbd;"><tspan x="650.3984375">Other Idea</tspan></text></g><g class="signal"><text x="830.15625" y="489.671875" style="font-size: 16px; font-family: danielbd;"><tspan x="830.15625"></tspan></text><path d="M771.8,484.7C869.8,480.0 860.5,489.3 888.5,484.7" stroke="#000000" fill="none" style="stroke-width: 2px; marker-end: url(&quot;#markerArrowBlock&quot;);"></path></g><g class="signal"><text x="895.0625" y="509.671875" style="font-size: 16px; font-family: danielbd;"><tspan x="895.0625"></tspan></text><path d="M771.8,504.7C813.0,494.8 909.4,514.5 1018.3,504.7" stroke="#000000" fill="none" style="stroke-width: 2px; stroke-dasharray: 6px, 2px; marker-end: url(&quot;#markerArrowBlock&quot;);"></path></g><g class="note"><path d="M1038.3203125,524.671875C1060.2,519.2 1096.3,530.2 1175.3,524.7C1176.6,543.5 1174.0,529.9 1175.3,557.3C1119.8,551.8 1090.2,562.7 1038.3,557.3C1037.0,540.9 1039.6,537.6 1038.3,524.7" stroke="#000000" fill="#ffffff" style="stroke-width: 2px;"></path><text x="1043.3203125" y="543.59375" style="font-size: 16px; font-family: danielbd;"><tspan x="1043.3203125">For apple APP</tspan></text></g><g class="note"><path d="M1215.3203125,577.25C1310.5,582.3 1261.3,572.2 1340.5,577.3C1339.2,591.5 1341.8,602.0 1340.5,609.8C1245.4,604.8 1256.7,614.8 1215.3,609.8C1214.0,602.0 1216.6,585.1 1215.3,577.3" stroke="#000000" fill="#ffffff" style="stroke-width: 2px;"></path><text x="1220.3203125" y="596.171875" style="font-size: 16px; font-family: danielbd;"><tspan x="1220.3203125">Back to APP</tspan></text></g><g class="signal"><text x="757.70703125" y="634.828125" style="font-size: 16px; font-family: danielbd;"><tspan x="757.70703125"></tspan></text><path d="M154.9,629.8C573.6,581.6 1167.6,678.1 1360.5,629.8" stroke="#000000" fill="none" style="stroke-width: 2px; stroke-dasharray: 6px, 2px; marker-end: url(&quot;#markerArrowBlock&quot;);"></path></g><g class="signal"><text x="801.15234375" y="654.828125" style="font-size: 16px; font-family: danielbd;"><tspan x="801.15234375"></tspan></text><path d="M241.8,649.8C1181.5,694.6 759.4,605.1 1360.5,649.8" stroke="#000000" fill="none" style="stroke-width: 2px; stroke-dasharray: 6px, 2px; marker-end: url(&quot;#markerArrowBlock&quot;);"></path></g><g class="signal"><text x="944.04296875" y="674.828125" style="font-size: 16px; font-family: danielbd;"><tspan x="944.04296875"></tspan></text><path d="M527.6,669.8C908.4,636.5 769.7,703.1 1360.5,669.8" stroke="#000000" fill="none" style="stroke-width: 2px; stroke-dasharray: 6px, 2px; marker-end: url(&quot;#markerArrowBlock&quot;);"></path></g><g class="signal"><text x="1415.01953125" y="694.828125" style="font-size: 16px; font-family: danielbd;"><tspan x="1415.01953125"></tspan></text><path d="M1360.5,689.8C1452.1,685.5 1419.5,694.2 1469.5,689.8" stroke="#000000" fill="none" style="stroke-width: 2px; marker-end: url(&quot;#markerArrowBlock&quot;);"></path></g><g class="signal"><text x="1470.9609375" y="714.828125" style="font-size: 16px; font-family: danielbd;"><tspan x="1470.9609375"></tspan></text><path d="M1360.5,709.8C1413.5,701.0 1400.8,718.7 1581.4,709.8" stroke="#000000" fill="none" style="stroke-width: 2px; marker-end: url(&quot;#markerArrowBlock&quot;);"></path></g><g class="signal"><text x="1530.5703125" y="734.828125" style="font-size: 16px; font-family: danielbd;"><tspan x="1530.5703125"></tspan></text><path d="M1360.5,729.8C1445.6,743.4 1619.0,716.2 1700.6,729.8" stroke="#000000" fill="none" style="stroke-width: 2px; marker-end: url(&quot;#markerArrowBlock&quot;);"></path></g><g class="signal"><text x="1359.484375" y="754.828125" style="font-size: 16px; font-family: danielbd;"><tspan x="1359.484375"></tspan></text><path d="M1018.3,749.8C1536.9,777.1 1591.5,722.5 1700.6,749.8" stroke="#000000" fill="none" style="stroke-width: 2px; stroke-dasharray: 6px, 2px; marker-end: url(&quot;#markerArrowBlock&quot;);"></path></g><g class="signal"><text x="1653.7578125" y="774.828125" style="font-size: 16px; font-family: danielbd;"><tspan x="1653.7578125"></tspan></text><path d="M1469.5,769.8C1558.0,784.6 1747.6,755.1 1838.0,769.8" stroke="#000000" fill="none" style="stroke-width: 2px; marker-end: url(&quot;#markerArrowBlock&quot;);"></path></g><g class="signal"><text x="1716.3046875" y="794.828125" style="font-size: 16px; font-family: danielbd;"><tspan x="1716.3046875"></tspan></text><path d="M1469.5,789.8C1632.3,770.1 1548.5,809.6 1963.1,789.8" stroke="#000000" fill="none" style="stroke-width: 2px; marker-end: url(&quot;#markerArrowBlock&quot;);"></path></g><g class="note"><path d="M1911.1328125,809.828125C1927.8,805.7 1946.2,814.0 2015.0,809.8C2013.7,837.2 2016.3,834.6 2015.0,842.4C1998.4,838.3 1927.8,846.6 1911.1,842.4C1912.4,837.2 1909.8,825.8 1911.1,809.8" stroke="#000000" fill="#ffffff" style="stroke-width: 2px;"></path><text x="1916.1328125" y="828.75" style="font-size: 16px; font-family: danielbd;"><tspan x="1916.1328125">For testing</tspan></text></g></svg>